<?xml version="1.0" encoding="UTF-8" standalone="no"?>
<!-- Uploaded to: SVG Repo, www.svgrepo.com, Generator: SVG Repo Mixer Tools -->

<svg
   width="800"
   height="562"
   viewBox="0 -3.5 24 16.86"
   id="meteor-icon-kit__regular-youtube"
   fill="none"
   version="1.1"
   sodipodi:docname="Logo2.svg"
   inkscape:version="1.3.2 (091e20e, 2023-11-25, custom)"
   xmlns:inkscape="http://www.inkscape.org/namespaces/inkscape"
   xmlns:sodipodi="http://sodipodi.sourceforge.net/DTD/sodipodi-0.dtd"
   xmlns="http://www.w3.org/2000/svg"
   xmlns:svg="http://www.w3.org/2000/svg"
   xmlns:rdf="http://www.w3.org/1999/02/22-rdf-syntax-ns#"
   xmlns:cc="http://creativecommons.org/ns#">
  <defs
     id="defs1" />
  <sodipodi:namedview
     id="namedview1"
     pagecolor="#505050"
     bordercolor="#ffffff"
     borderopacity="1"
     inkscape:showpageshadow="0"
     inkscape:pageopacity="0"
     inkscape:pagecheckerboard="1"
     inkscape:deskcolor="#505050"
     inkscape:zoom="0.20171875"
     inkscape:cx="99.147949"
     inkscape:cy="384.1983"
     inkscape:window-width="1920"
     inkscape:window-height="1129"
     inkscape:window-x="1912"
     inkscape:window-y="527"
     inkscape:window-maximized="1"
     inkscape:current-layer="meteor-icon-kit__regular-youtube" />
  <path
     fill-rule="evenodd"
     clip-rule="evenodd"
     d="M 23.4593,-0.84863 C 23.1843,-1.88439 22.3738,-2.70013 21.3447,-2.97696 19.4795,-3.48 12,-3.48 12,-3.48 c 0,0 -7.47941,0 -9.34471,0.50304 C 1.62622,-2.70009 0.815739,-1.88439 0.540659,-0.84863 0.040863,1.02876 0.040863,4.9458 0.040863,4.9458 c 0,0 0,3.9169 0.499796,5.7943 0.27508,1.0358 1.085561,1.8175 2.114631,2.0944 1.8653,0.503 9.34471,0.503 9.34471,0.503 0,0 7.4794,0 9.3447,-0.503 1.0291,-0.2769 1.8396,-1.0586 2.1146,-2.0944 0.4998,-1.8774 0.4998,-5.7943 0.4998,-5.7943 0,0 0,-3.91704 -0.4998,-5.79443 z"
     fill="#758ca3"
     id="path1"
     sodipodi:nodetypes="ccccccccccccc"
     style="fill:#d2d2d2;fill-opacity:1"
     inkscape:label="fondo" />
  <path
     style="font-size:48px;line-height:0.9;font-family:'DejaVu Sans Mono';-inkscape-font-specification:'DejaVu Sans Mono, Normal';text-align:center;letter-spacing:0px;text-anchor:middle;white-space:pre;shape-padding:10.9128;display:inline;fill:#000000;fill-opacity:1;stroke-width:0.179687"
     d="M 8.5078302,-1.9778076 V -1.114473 Q 8.1203819,-1.362945 7.7287218,-1.4892857 7.3412734,-1.6156285 6.9454034,-1.6156285 q -0.6022308,0 -0.9517761,0.2821629 -0.3495454,0.2779529 -0.3495454,0.753841 0,0.4169276 0.2274145,0.63592 0.2316281,0.2189926 0.8591245,0.3663909 l 0.4464087,0.1010734 q 0.8843918,0.2063588 1.2886857,0.6485556 0.4042939,0.4421951 0.4042939,1.2044579 0,0.8970275 -0.555904,1.3687037 Q 7.758201,4.217153 6.6969297,4.217153 6.2547346,4.217153 5.808326,4.120292 5.3619191,4.0276405 4.9112986,3.8381269 V 2.9326773 q 0.4843116,0.3074322 0.913873,0.4506187 0.433773,0.1431884 0.8717581,0.1431884 0.6443437,0 1.0023128,-0.2863749 0.357969,-0.2905865 0.357969,-0.8085877 0,-0.4716761 -0.2484737,-0.7201479 Q 7.5644778,1.4629004 6.9538252,1.3281357 L 6.4989946,1.222852 Q 5.6230246,1.0249153 5.2271544,0.6248333 4.8312825,0.2247512 4.8312825,-0.4490718 q 0,-0.8422788 0.5643277,-1.3476462 0.5685378,-0.5095792 1.5076782,-0.5095792 0.362181,0 0.762263,0.084228 0.4000819,0.080016 0.8422788,0.2442616 z m 2.6110638,0.4843099 V 0.869095 h 0.985465 q 0.589596,0 0.918085,-0.3116441 0.332701,-0.3116422 0.332701,-0.8717581 0,-0.5601159 -0.328489,-0.8675481 -0.328489,-0.3116424 -0.922297,-0.3116424 z m -0.850702,-0.6990924 h 1.836167 q 1.05285,0 1.596121,0.4801 0.543268,0.4758879 0.543268,1.3981829 0,0.9307186 -0.543268,1.4066048 -0.539059,0.475888 -1.596121,0.475888 h -0.985465 v 2.5268365 h -0.850702 z m 6.043353,0.6990924 V 0.869095 h 0.985464 q 0.589596,0 0.918086,-0.3116441 0.3327,-0.3116422 0.3327,-0.8717581 0,-0.5601159 -0.328491,-0.8675481 -0.328487,-0.3116424 -0.922295,-0.3116424 z m -0.850704,-0.6990924 h 1.836168 q 1.052851,0 1.596119,0.4801 0.54327,0.4758879 0.54327,1.3981829 0,0.9307186 -0.54327,1.4066048 -0.539059,0.475888 -1.596119,0.475888 H 16.311545 V 4.0950221 H 15.460841 Z M 4.4438342,5.6540799 H 9.2406119 V 6.370018 H 7.2738912 v 5.571674 H 6.4189786 V 6.370018 H 4.4438342 Z m 5.7443418,0 h 4.080842 V 6.302636 l -3.284888,4.923119 h 3.377537 v 0.715937 h -4.266141 v -0.648556 l 3.196447,-4.923118 h -3.103797 z m 5.272665,0 h 3.731297 V 6.370018 h -2.880593 v 1.861436 h 2.75425 v 0.715938 h -2.75425 v 2.278363 h 2.960609 v 0.715937 h -3.811313 z"
     id="text1"
     inkscape:label="spptze"
     aria-label="SPP&#10;TZE" />
  <metadata
     id="metadata1">
    <rdf:RDF>
      <cc:License
         rdf:about="http://creativecommons.org/licenses/by-nc/4.0/">
        <cc:permits
           rdf:resource="http://creativecommons.org/ns#Reproduction" />
        <cc:permits
           rdf:resource="http://creativecommons.org/ns#Distribution" />
        <cc:requires
           rdf:resource="http://creativecommons.org/ns#Notice" />
        <cc:requires
           rdf:resource="http://creativecommons.org/ns#Attribution" />
        <cc:prohibits
           rdf:resource="http://creativecommons.org/ns#CommercialUse" />
        <cc:permits
           rdf:resource="http://creativecommons.org/ns#DerivativeWorks" />
      </cc:License>
      <cc:Work
         rdf:about="">
        <cc:license
           rdf:resource="http://creativecommons.org/licenses/by-nc/4.0/" />
      </cc:Work>
    </rdf:RDF>
  </metadata>
</svg>
